<svg width="169" height="33" viewBox="0 0 169 33" fill="none" xmlns="http://www.w3.org/2000/svg">
<path d="M42.8725 9.28763H37.053V23.5812H40.1159V18.7827H42.8725C43.8935 18.7827 44.7919 18.5989 45.5679 18.2109C46.3438 17.8229 46.9564 17.2716 47.3852 16.5569C47.814 15.8423 48.0386 15.0051 48.0386 14.0454C48.0386 13.1061 47.814 12.2689 47.3852 11.5338C46.9564 10.8191 46.3438 10.2678 45.5679 9.87979C44.7919 9.49182 43.8935 9.28763 42.8725 9.28763ZM40.1159 16.2302V11.8401H42.5866C43.3013 11.8401 43.8731 12.0442 44.3019 12.4322C44.7103 12.8406 44.9349 13.3715 44.9349 14.0454C44.9349 14.7192 44.7103 15.2501 44.3019 15.6381C43.8731 16.0465 43.3013 16.2302 42.5866 16.2302H40.1159Z" fill="white"/>
<path d="M55.922 13.0856H55.4319C54.656 13.0856 54.023 13.2286 53.5737 13.494C53.1041 13.7595 52.7161 14.1474 52.4098 14.6579L52.1444 13.0856H49.5307V23.5812H52.4098V18.4355C52.4098 17.5983 52.5936 16.9245 52.9816 16.4344C53.3491 15.9444 53.9617 15.6993 54.7785 15.6993H55.922V13.0856Z" fill="white"/>
<path d="M59.842 9.18553C59.5153 8.87924 59.1273 8.71588 58.6577 8.71588C58.1676 8.71588 57.7797 8.87924 57.4529 9.18553C57.1262 9.49182 56.9833 9.87979 56.9833 10.329C56.9833 10.7987 57.1262 11.1866 57.4529 11.4929C57.7797 11.8196 58.1676 11.9626 58.6577 11.9626C59.1273 11.9626 59.5153 11.8196 59.842 11.4929C60.1483 11.1866 60.3117 10.7987 60.3117 10.329C60.3117 9.87979 60.1483 9.49182 59.842 9.18553ZM57.2079 13.0856V23.5812H60.0871V13.0856H57.2079Z" fill="white"/>
<path d="M77.4693 14.0862C76.7546 13.3511 75.8357 12.9631 74.7126 12.9631C73.9163 12.9631 73.2016 13.1265 72.589 13.4328C71.9764 13.7391 71.4659 14.1679 71.0984 14.7396C70.5062 13.5553 69.4648 12.9631 67.9742 12.9631C67.2391 12.9835 66.6265 13.1061 66.1365 13.3511C65.6464 13.5961 65.2176 13.9433 64.8705 14.3925L64.605 13.0856H62.0934V23.6016H64.9726V17.8638C64.9726 17.0878 65.1563 16.4753 65.5239 16.026C65.8914 15.5768 66.4019 15.3318 67.0349 15.3318C68.2601 15.3318 68.8727 16.1281 68.8727 17.7208V23.6016H71.7518V17.8434C71.7518 17.0674 71.9356 16.4548 72.3236 16.0056C72.6911 15.5564 73.2016 15.3318 73.8346 15.3318C75.0393 15.3318 75.6519 16.1281 75.6519 17.7208V23.6016H78.5311V17.8229C78.5311 16.0873 78.1635 14.8417 77.4693 14.0862Z" fill="white"/>
<path d="M80.5843 15.5156C80.1351 16.3323 79.9309 17.2716 79.9309 18.3539C79.9309 19.4361 80.1555 20.3754 80.6048 21.1922C81.054 22.0089 81.7074 22.6215 82.565 23.0503C83.4226 23.4995 84.4232 23.7037 85.6075 23.7037C86.506 23.7037 87.3023 23.5608 87.9966 23.2341C88.6908 22.9074 89.2422 22.4786 89.671 21.9068C90.0794 21.3555 90.3448 20.7225 90.4673 20.0282H87.629C87.5065 20.5183 87.2411 20.9063 86.8531 21.1513C86.4651 21.3963 85.9751 21.5189 85.4033 21.5189C84.6682 21.5189 84.0761 21.3147 83.6677 20.8654C83.2389 20.4366 82.9938 19.8445 82.9326 19.0685V18.9869H90.549C90.5899 18.701 90.6307 18.3743 90.6307 18.0067C90.6103 16.9857 90.3652 16.1077 89.916 15.3522C89.4668 14.5967 88.8338 14.0045 88.017 13.5961C87.2002 13.1877 86.2814 12.9631 85.2195 12.9631C84.1577 12.9631 83.2389 13.1877 82.4425 13.637C81.6461 14.0862 81.0336 14.6988 80.5843 15.5156ZM87.7516 17.1083H82.9938C83.0755 16.4957 83.3205 16.026 83.7493 15.6585C84.1782 15.2909 84.7091 15.1072 85.3421 15.1072C85.9955 15.1072 86.5264 15.2909 86.9552 15.6381C87.384 15.9852 87.6495 16.4753 87.7516 17.1083Z" fill="white"/>
<path d="M92.5921 23.5812H100.882V21.9477H94.3686V9.28763H92.5921V23.5812Z" fill="white"/>
<path d="M101.777 23.5812H103.615L105.126 19.722H111.354L112.865 23.5812H114.764L109.333 9.28763H107.229L101.777 23.5812ZM105.657 18.1088L108.23 11.2275L110.823 18.1088H105.657Z" fill="white"/>
<path d="M117.319 9.28763H115.542V17.4758C115.542 19.5178 115.991 21.0696 116.91 22.1314C117.829 23.1933 119.177 23.7037 120.974 23.7037C122.75 23.7037 124.098 23.1933 125.037 22.1314C125.976 21.0696 126.446 19.5178 126.446 17.4758V9.28763H124.67V17.5779C124.67 20.5796 123.424 22.0702 120.974 22.0702C118.523 22.0702 117.319 20.5796 117.319 17.5779V9.28763Z" fill="white"/>
<path d="M129.144 23.5812H130.879V12.5547L138.557 23.5812H140.191V9.28763H138.455V20.3141L130.777 9.28763H129.144V23.5812Z" fill="white"/>
<path d="M143.269 12.6364C142.697 13.7391 142.432 15.0051 142.432 16.4344C142.432 17.8842 142.697 19.1502 143.269 20.2529C143.82 21.3555 144.617 22.1927 145.658 22.8053C146.679 23.4179 147.884 23.7037 149.252 23.7037C150.845 23.7037 152.151 23.2749 153.213 22.4173C154.275 21.5597 154.928 20.3958 155.214 18.9052H153.438C153.152 19.9261 152.662 20.7021 151.927 21.2534C151.192 21.8047 150.273 22.0702 149.17 22.0702C148.19 22.0702 147.312 21.8456 146.577 21.3555C145.821 20.8859 145.25 20.212 144.841 19.3544C144.433 18.4968 144.249 17.5371 144.249 16.4344C144.249 15.3318 144.433 14.3721 144.841 13.5144C145.25 12.6568 145.821 12.0034 146.577 11.5133C147.312 11.0437 148.19 10.7987 149.17 10.7987C150.252 10.7987 151.171 11.0845 151.927 11.6359C152.682 12.2076 153.193 12.9835 153.458 13.9637H155.235C154.949 12.4935 154.275 11.3091 153.213 10.4515C152.151 9.59392 150.824 9.16511 149.252 9.16511C147.884 9.16511 146.679 9.4714 145.658 10.084C144.617 10.6966 143.82 11.5338 143.269 12.6364Z" fill="white"/>
<path d="M157.46 9.26721V23.5812H159.236V17.1287H166.628V23.5812H168.404V9.26721H166.628V15.4951H159.236V9.26721H157.46Z" fill="white"/>
<path d="M20.6256 23.5715L0.000549316 11.7857L4.12555 9.42859L24.7506 21.2143L20.6256 23.5715Z" fill="#EBA7DA"/>
<path d="M0 25.928L4.12558 28.2857V18.8572L16.5006 11.7857V7.07143L4.12558 0L0.000575475 2.35714V11.7857L4.12558 9.42858V4.71429L12.3756 9.42858L0 16.5V25.928Z" fill="white"/>
<path d="M24.7512 7.07199L20.6256 4.71427L20.6256 14.1428L8.25064 21.2143L8.25064 25.9286L20.6256 33L24.7506 30.6429L24.7506 21.2143L20.6256 23.5714L20.6256 28.2857L12.3756 23.5714L24.7512 16.5L24.7512 7.07199Z" fill="white"/>
</svg>
